<?xml version="1.0" standalone="no"?>
<!DOCTYPE svg PUBLIC "-//W3C//DTD SVG 1.1//EN" "http://www.w3.org/Graphics/SVG/1.1/DTD/svg11.dtd">
<svg xmlns="http://www.w3.org/2000/svg">
<defs >
<font id="PublicSans" horiz-adv-x="1094" ><font-face
    font-family="Public Sans Thin"
    units-per-em="2000"
    panose-1="0 0 0 0 0 0 0 0 0 0"
    ascent="1900"
    descent="-450"
    alphabetic="0" />
<glyph unicode=" " horiz-adv-x="461" />
<glyph unicode="!" horiz-adv-x="502" d="M356 233V0H136V233H356ZM357 1446L309 367H185L136 1446H357Z" />
<glyph unicode="&quot;" horiz-adv-x="851" d="M715 1446L655 979H549L491 1446H715ZM360 1446L300 979H194L136 1446H360Z" />
<glyph unicode="#" horiz-adv-x="1206" d="M568 1436L351 -3L237 13L455 1449L568 1436ZM978 1436L761 -3L647 13L865 1449L978 1436ZM1062 582V469H73V582H1062ZM1126 992V879H137V992H1126Z" />
<glyph unicode="$" horiz-adv-x="1317" d="M678 -20Q449 -20 299 78T119 370L313 382Q345 260 441 199T677 138Q761 138 834 167T953 248T999 371Q999 466 943 523T763 613L514 678Q353 719 259 807T164 1043Q163 1168 229 1263T413 1411T685 1464Q833 1464 940
1408T1107 1258T1171 1055L983 1045Q961 1174 889 1240T685 1307Q623 1307 566 1292T463 1245T390 1168T363 1061Q363 983 418 938T616 848L856 780Q1040 729 1118 622T1197 373Q1197 258 1132 170T950 31T678 -20ZM600 1662H771V1404H600V1662ZM588 49H759V-209H588V49Z"
/>
<glyph unicode="%" horiz-adv-x="1808" d="M450 1468Q547 1468 624 1417T745 1273T789 1054Q789 928 746 836T625 694T450 643Q351 643 274 693T151 836T106 1054Q106 1180 151 1273T273 1417T450 1468ZM448 746Q544 746 595 831T647 1054Q647 1194 595 1279T448
1365Q384 1365 340 1326T272 1216T248 1054Q248 917 300 832T448 746ZM1355 807Q1453 807 1530 756T1651 611T1695 393Q1695 267 1652 174T1531 31T1355 -20Q1256 -20 1178 30T1056 174T1012 393Q1012 518 1056 611T1179 755T1355 807ZM1353 85Q1415 85 1460 124T1529
233T1553 391Q1553 482 1529 552T1459 663T1353 703Q1292 703 1247 663T1178 552T1154 391Q1154 302 1178 233T1246 125T1353 85ZM1438 1462L466 -8L341 -7L1317 1462H1438Z" />
<glyph unicode="&amp;" horiz-adv-x="1417" d="M623 1468Q729 1468 819 1430T964 1323T1019 1160Q1019 1122 1004 1077T951 982T847 877T677 768L994 397Q1013 424 1040 478T1092 609T1121 779H1303Q1289 676 1256 590T1179 429T1086 286L1330 0H1114L974 161Q864
71 750 31T523 -10Q382 -10 285 37T137 169T87 363Q87 458 124 534T238 676T430 802Q374 862 334 917T272 1029T250 1150Q250 1240 297 1312T429 1426T623 1468ZM630 1341Q535 1340 486 1287T436 1161Q436 1112 457 1064T507 975T559 910L594 871Q699 932 754 980T829
1070T850 1156Q850 1223 818 1264T735 1323T630 1341ZM524 690Q420 633 353 552T291 368Q295 297 333 246T431 166T563 138Q647 138 732 175T881 275L524 690Z" />
<glyph unicode="&apos;" horiz-adv-x="496" d="M360 1446L300 979H194L136 1446H360Z" />
<glyph unicode="(" horiz-adv-x="605" d="M552 1521Q450 1327 384 1097T318 629Q318 404 374 191T536 -247H410Q327 -107 267 30T173 314T139 631Q139 879 219 1107T425 1521H552Z" />
<glyph unicode=")" horiz-adv-x="618" d="M39 1521Q141 1327 207 1097T273 629Q273 404 217 191T55 -247H181Q264 -107 324 30T418 314T452 631Q452 879 372 1107T166 1521H39Z" />
<glyph unicode="*" horiz-adv-x="788" d="M554 771L398 1024L237 765L127 840L316 1075L53 1149L95 1266L346 1165L328 1446H464L446 1164L700 1274L738 1157L481 1076L665 850L554 771Z" />
<glyph unicode="+" horiz-adv-x="1109" d="M986 799V656L123 654V798L986 799ZM628 296H485L483 1159H627L628 296Z" />
<glyph unicode="," horiz-adv-x="483" d="M87 -251L199 -4L112 1V222H343V30L173 -251H87Z" />
<glyph unicode="-" horiz-adv-x="755" d="M631 590V444L124 443V588L631 590Z" />
<glyph unicode="." horiz-adv-x="451" d="M110 0V236H330V0H110Z" />
<glyph unicode="/" horiz-adv-x="701" d="M27 -77L527 1446H671L170 -77H27Z" />
<glyph unicode="0" horiz-adv-x="1224" d="M613 1466Q848 1466 987 1278T1127 720Q1127 353 988 166T611 -22Q374 -22 235 164T96 717Q96 964 160 1131T340 1382T613 1466ZM613 138Q768 138 847 274T927 719Q927 1033 847 1171T612 1310Q459 1310 377 1171T294
719Q294 412 376 275T613 138Z" />
<glyph unicode="1" horiz-adv-x="814" d="M372 0V1151H93V1272Q223 1272 295 1291T397 1349T431 1446H563V0H372Z" />
<glyph unicode="2" horiz-adv-x="1192" d="M124 0V113V172Q124 283 165 364T275 505T425 614T588 706T738 799T847 909T889 1055Q889 1165 812 1234T602 1303Q460 1303 374 1223T277 1010H93Q96 1135 155 1238T328 1404T609 1466Q754 1466 861 1415T1026 1271T1085
1055Q1085 943 1044 863T936 725T788 620T627 532T479 443T371 336T330 193V164H1093V0H124Z" />
<glyph unicode="3" horiz-adv-x="1260" d="M115 1025Q115 1165 183 1263T364 1414T615 1466Q765 1466 880 1423T1060 1296T1125 1093Q1125 986 1057 900T849 764Q944 738 1015 688T1125 566T1164 399Q1164 300 1123 222T1006 89T829 6T607 -22Q458 -21 345 33T166
184T96 416H281Q302 281 391 209T614 137Q720 137 799 170T921 263T964 401Q964 488 916 548T785 639T600 672L470 675V832L594 835Q689 837 764 871T882 962T926 1087Q926 1147 889 1198T783 1281T614 1312Q536 1312 465 1282T348 1188T299 1025H115Z" />
<glyph unicode="4" horiz-adv-x="1257" d="M767 1446H955V532H1195V369H955V0H774V369H93V538L767 1446ZM270 532H770V1203L270 532Z" />
<glyph unicode="5" horiz-adv-x="1281" d="M234 1446H1097L1092 1286H392L355 819Q427 886 512 914T698 943Q829 943 939 890T1117 732T1184 473Q1184 323 1119 212T936 40T659 -22Q525 -22 411 25T216 156T96 349L256 416Q292 334 346 270T476 170T646 134Q800
134 893 223T987 467Q987 563 943 634T825 746T660 786Q601 786 550 776T449 735T344 644Q338 641 335 641T325 645L169 694L234 1446Z" />
<glyph unicode="6" horiz-adv-x="1245" d="M662 1466Q782 1466 883 1421T1052 1292T1135 1089H961Q932 1192 856 1252T665 1312Q537 1312 452 1240T327 1028T300 685Q327 758 382 813T512 899T672 930Q815 930 922 875T1089 717T1149 472Q1149 327 1088 216T913
41T646 -22Q478 -22 355 65T164 313T96 701Q96 933 161 1105T353 1371T662 1466ZM642 780Q563 780 491 743T373 644T327 509Q326 399 365 314T477 180T644 131Q733 131 802 173T910 290T950 463Q950 562 915 633T810 742T642 780Z" />
<glyph unicode="7" horiz-adv-x="1201" d="M93 1446H1108V1286Q1031 1181 956 1048T812 769T690 482T601 216T555 0H354Q370 99 411 245T521 564T685 923T905 1286H93V1446Z" />
<glyph unicode="8" horiz-adv-x="1295" d="M647 1466Q786 1466 896 1420T1070 1286T1134 1072Q1134 954 1071 874T907 752Q980 738 1046 684T1156 553T1199 392Q1199 267 1131 174T938 30T647 -22Q481 -22 357 29T165 174T96 392Q96 476 138 553T248 684T388 752Q289
794 225 874T160 1072Q160 1198 224 1286T398 1420T647 1466ZM647 830Q779 830 861 895T944 1076Q944 1193 861 1260T647 1328Q516 1328 433 1260T350 1076Q350 960 433 895T647 830ZM647 128Q808 128 904 200T1000 393Q1000 472 957 534T834 631T647 667Q540 667
462 632T340 534T296 393Q296 273 391 201T647 128Z" />
<glyph unicode="9" horiz-adv-x="1249" d="M581 -22Q461 -22 358 23T185 153T99 354H279Q304 255 383 194T575 132Q703 132 794 199T931 406T965 765Q940 689 886 632T756 541T588 508Q445 508 336 564T167 724T106 973Q106 1118 166 1229T338 1403T604 1466Q772
1466 895 1380T1085 1132T1152 744Q1152 501 1086 330T892 69T581 -22ZM608 665Q688 665 760 702T877 800T923 935Q924 1047 885 1132T774 1266T606 1315Q518 1315 451 1273T345 1156T306 982Q306 837 383 751T608 665Z" />
<glyph unicode=":" horiz-adv-x="451" d="M331 993V758H110V993H331ZM331 239V6H110V239H331Z" />
<glyph unicode=";" horiz-adv-x="480" d="M110 -285L224 0H139V234H360V27L190 -285H110ZM133 753V990H354V753H133Z" />
<glyph unicode="&lt;" horiz-adv-x="1091" d="M967 448V278L123 607V776L968 1110V936L344 691L967 448Z" />
<glyph unicode="=" horiz-adv-x="1109" d="M986 992V849L123 848V991L986 992ZM986 549V405L123 404V547L986 549Z" />
<glyph unicode="&gt;" horiz-adv-x="1091" d="M124 448L748 691L123 936V1110L968 776V607L124 278V448Z" />
<glyph unicode="?" horiz-adv-x="1033" d="M597 233V0H378V233H597ZM46 1177Q110 1313 235 1389T522 1466Q656 1466 756 1422T910 1299T965 1119Q965 1017 925 943T826 806T707 683T607 547T566 372H408Q408 486 445 569T537 719T646 845T738 968T776 1111Q776
1210 705 1267T520 1325Q455 1325 393 1299T282 1229T211 1128L46 1177Z" />
<glyph unicode="@" horiz-adv-x="1656" d="M1309 -69Q1222 -136 1104 -178T845 -220Q667 -220 527 -163T289 -6T140 226T89 509Q89 667 145 807T305 1056T554 1226T876 1288Q1004 1288 1126 1252T1348 1140T1507 946T1566 663Q1566 513 1517 400T1382 222T1188
158Q1110 158 1068 184T1011 260Q1006 273 1002 273T988 262Q945 206 879 168T719 130Q644 130 580 172T478 292T440 475Q440 598 488 700T622 864T820 926Q901 926 955 893T1043 806Q1046 802 1051 803T1057 813L1073 876H1199L1124 432Q1110 347 1130 315T1199
283Q1261 283 1313 326T1397 452T1430 651Q1430 792 1382 890T1253 1050T1074 1139T875 1167Q717 1167 597 1115T394 971T269 761T227 508Q227 378 269 267T393 73T595 -56T873 -102Q963 -102 1025 -85T1137 -39T1238 24L1309 -69ZM592 486Q592 385 633 323T749
261Q812 261 866 298T955 397T1000 530Q1011 617 989 676T924 765T829 795Q760 795 707 753T623 641T592 486Z" />
<glyph unicode="A" horiz-adv-x="1420" d="M83 0L606 1446H815L1338 0H1149L1007 396H416L271 0H83ZM463 566H958L712 1263L463 566Z" />
<glyph unicode="B" horiz-adv-x="1341" d="M191 0V1446H656Q920 1446 1055 1349T1191 1069Q1191 954 1132 872T923 737Q1008 719 1066 685T1160 606T1211 505T1227 389Q1227 193 1088 97T671 0H191ZM376 154H669Q850 154 944 213T1039 397Q1039 488 993 544T867
627T691 653H376V154ZM376 810H691Q748 810 804 821T907 859T983 931T1012 1046Q1012 1172 916 1232T665 1293H376V810Z" />
<glyph unicode="C" horiz-adv-x="1377" d="M723 1466Q876 1466 994 1403T1184 1233T1269 1000H1072Q1056 1085 1011 1154T893 1264T718 1305Q587 1305 497 1244T360 1054T313 726Q313 424 416 283T718 141Q820 141 893 184T1011 299T1072 455H1269Q1258 363 1220
278T1114 125T950 19T723 -20Q528 -20 391 69T181 325T108 728Q108 963 180 1128T389 1379T723 1466Z" />
<glyph unicode="D" horiz-adv-x="1387" d="M191 1446Q198 1446 233 1446T320 1445T426 1446T527 1444Q793 1440 958 1358T1201 1118T1279 732Q1279 492 1196 329T942 83T508 0H191V1446ZM381 1287V159H508Q687 159 816 214T1014 395T1084 729Q1084 938 1017 1060T822
1234T516 1287H381Z" />
<glyph unicode="E" horiz-adv-x="1241" d="M191 0V1446H1103L1102 1283H377V811H1030V649H376V167L1122 165V0H191Z" />
<glyph unicode="F" horiz-adv-x="1188" d="M191 1446H1092L1091 1284H381V806H1019V646H381V0H191V1446Z" />
<glyph unicode="G" horiz-adv-x="1466" d="M722 -20Q532 -20 394 67T182 320T108 719Q108 955 183 1122T399 1377T730 1466Q839 1466 935 1428T1105 1325T1223 1175T1274 1000H1076Q1062 1080 1014 1149T893 1260T727 1302Q602 1302 508 1241T361 1051T308 723Q308
569 340 459T429 281T564 180T732 147Q823 147 890 179T1003 261T1072 370T1099 483L1105 611H753V747L1297 746V0H1158V220Q1120 158 1062 103T921 14T722 -20Z" />
<glyph unicode="H" horiz-adv-x="1532" d="M1156 667H376V0H191V1446H376V830H1156V1446H1341V0H1156V667Z" />
<glyph unicode="I" horiz-adv-x="566" d="M191 1446H376V0H191V1446Z" />
<glyph unicode="J" horiz-adv-x="777" d="M624 341Q624 226 598 145T506 22T317 -20Q240 -20 173 -2T83 25L96 202Q127 191 167 175T268 158Q366 158 402 212T439 394V1446H624V341Z" />
<glyph unicode="K" horiz-adv-x="1364" d="M1294 0H1085L634 743L383 456V0H191V1446H383V698L1031 1446H1252L769 878L1294 0Z" />
<glyph unicode="L" horiz-adv-x="1155" d="M192 1446H381V166H1064V0H191L192 1446Z" />
<glyph unicode="M" horiz-adv-x="1771" d="M191 0V1446H447L883 252L1325 1446H1580V0H1389V1169L970 0H797L381 1158V0H191Z" />
<glyph unicode="N" horiz-adv-x="1508" d="M1132 1446H1317V0H1152L376 1140V0H191V1446H368L1132 322V1446Z" />
<glyph unicode="O" horiz-adv-x="1468" d="M736 -20Q543 -20 402 67T185 319T108 720Q108 957 185 1123T403 1378T736 1466Q928 1466 1068 1379T1284 1125T1360 720Q1360 485 1285 320T1069 67T736 -20ZM736 141Q870 141 964 202T1107 391T1157 718Q1157 920 1107
1050T963 1242T736 1305Q604 1305 509 1242T363 1049T312 718Q312 519 363 391T509 202T736 141Z" />
<glyph unicode="P" horiz-adv-x="1273" d="M191 0V1446H680Q835 1446 956 1394T1146 1240T1216 989Q1216 845 1152 743T972 588T705 535H381V0H191ZM380 691H701Q850 691 943 774T1036 1000Q1036 1144 940 1218T692 1292H380V691Z" />
<glyph unicode="Q" horiz-adv-x="1495" d="M108 720Q108 958 184 1125T402 1379T735 1466Q928 1466 1068 1379T1284 1125T1360 720Q1360 496 1294 336T1078 79Q1115 -3 1187 -42T1349 -85V-242Q1278 -242 1199 -225T1045 -156T906 -2Q856 -11 816 -15T735 -20Q544
-20 403 65T185 316T108 720ZM313 716Q313 418 423 280T735 141Q937 141 1047 280T1158 719Q1158 1016 1049 1160T735 1305Q532 1305 423 1160T313 716Z" />
<glyph unicode="R" horiz-adv-x="1353" d="M1225 0H1029L765 623H376V0H191V1446H751Q907 1446 1012 1399T1169 1263T1221 1051Q1221 933 1180 855T1074 730T941 656L1225 0ZM691 776Q854 776 943 842T1032 1040Q1032 1168 953 1231T735 1295H376V776H691Z" />
<glyph unicode="S" horiz-adv-x="1347" d="M682 -20Q580 -20 484 5T310 82T181 208T116 384H310Q328 302 381 246T512 162T681 134Q783 134 863 162T990 244T1037 371Q1037 436 1008 484T922 564T786 614L502 680Q342 715 252 805T159 1043Q159 1168 225 1263T408
1411T675 1464Q848 1464 966 1405T1144 1250T1205 1045H1014Q1005 1143 957 1200T835 1282T676 1307Q614 1307 557 1292T454 1245T381 1168T354 1061Q354 983 407 934T602 850L877 784Q985 761 1053 716T1159 614T1211 495T1226 373Q1226 264 1161 175T975 33T682
-20Z" />
<glyph unicode="T" horiz-adv-x="1187" d="M46 1276V1446H1140V1276H699V0H513V1276H46Z" />
<glyph unicode="U" horiz-adv-x="1401" d="M1248 500Q1248 333 1193 217T1022 41T719 -20Q531 -20 415 42T245 224T191 519V1446H383V491Q383 316 470 229T719 142Q828 142 904 180T1021 295T1062 491V1446H1248V500Z" />
<glyph unicode="V" horiz-adv-x="1332" d="M1286 1446L773 0H550L46 1446H229L662 211L1104 1446H1286Z" />
<glyph unicode="W" horiz-adv-x="1907" d="M1861 1446L1439 0H1268L951 1121L629 0H463L46 1446H233L553 295L879 1446H1024L1349 295L1675 1446H1861Z" />
<glyph unicode="X" horiz-adv-x="1376" d="M1294 0H1065L673 596L287 0H83L573 738L100 1446H328L688 895L1045 1446H1249L787 757L1294 0Z" />
<glyph unicode="Y" horiz-adv-x="1214" d="M1191 1446L701 615V0H517V616L24 1446H226L610 781L988 1446H1191Z" />
<glyph unicode="Z" horiz-adv-x="1274" d="M127 0V102L919 1285H161V1446H1178V1348L379 163H1174V0H127Z" />
<glyph unicode="[" horiz-adv-x="606" d="M179 1446H552V1327H342L341 -203H551V-322H180L179 1446Z" />
<glyph unicode="\" horiz-adv-x="701" d="M523 -77L23 1446H167L668 -77H523Z" />
<glyph unicode="]" horiz-adv-x="634" d="M414 1446H41V1327H251L252 -203H42V-322H413L414 1446Z" />
<glyph unicode="^" horiz-adv-x="946" d="M699 256L467 841L233 259H89L387 982Q405 1027 435 1043T497 1046T547 983L846 256H699Z" />
<glyph unicode="_" horiz-adv-x="1035" d="M908 -91V-236L123 -237V-92L908 -91Z" />
<glyph unicode="`" horiz-adv-x="437" d="M221 1446H11L284 1155H427L221 1446Z" />
<glyph unicode="a" horiz-adv-x="1129" d="M439 -20Q339 -20 262 15T142 118T98 280Q98 452 218 536T603 626L788 631V712Q788 807 731 862T554 918Q465 917 398 876T310 742H147Q153 843 204 912T346 1018T563 1054Q698 1054 787 1016T921 904T966 722V0H808L795
194Q735 73 643 27T439 -20ZM495 113Q547 113 598 132T693 183T761 256T788 340V517L634 514Q516 512 437 490T318 421T278 298Q278 211 338 162T495 113Z" />
<glyph unicode="b" horiz-adv-x="1190" d="M664 -20Q573 -20 511 4T408 65T346 142T314 212L294 0H153V1486H339V870Q352 896 378 927T447 987T546 1035T678 1054Q872 1054 986 919T1101 521Q1101 358 1052 237T906 48T664 -20ZM631 122Q757 122 836 219T915 530Q915
711 842 810T627 910Q524 910 462 866T370 736T339 530Q339 313 406 218T631 122Z" />
<glyph unicode="c" horiz-adv-x="1079" d="M565 1054Q676 1054 765 1012T910 891T981 707H817Q808 761 776 806T690 878T566 905Q433 905 350 809T267 515Q267 336 343 229T569 121Q640 121 692 148T777 221T818 319H979Q966 215 909 139T764 22T565 -20Q426 -20
319 41T150 221T89 513Q89 675 144 796T306 986T565 1054Z" />
<glyph unicode="d" horiz-adv-x="1190" d="M526 -20Q325 -20 207 118T89 521Q89 682 136 802T278 988T512 1054Q586 1054 643 1035T743 987T811 927T851 870V1486H1037V0H896L876 212Q866 182 844 143T782 66T680 4T526 -20ZM559 122Q716 122 783 217T851 530Q850
651 821 736T729 865T563 910Q435 910 355 819T275 530Q275 336 347 229T559 122Z" />
<glyph unicode="e" horiz-adv-x="1126" d="M285 474Q285 376 317 297T416 170T583 123Q682 123 753 169T845 302H1020Q1001 197 936 125T779 17T587 -20Q442 -20 332 43T160 224T98 507Q98 670 154 793T316 985T573 1054Q719 1054 820 991T973 814T1026 542V474H285ZM286
599H848Q848 688 818 759T727 872T572 914Q475 914 412 868T317 749T286 599Z" />
<glyph unicode="f" horiz-adv-x="812" d="M737 1034V899H486V0H300V899H82V1034H300V1194Q300 1317 363 1381T551 1446H746L747 1315H592Q529 1315 506 1281T483 1178V1034H737Z" />
<glyph unicode="g" horiz-adv-x="1242" d="M589 -342Q345 -342 210 -272T74 -70Q74 -14 100 25T162 91T229 132T269 155Q252 165 227 180T182 220T163 285Q163 334 209 375T345 436Q254 482 203 558T152 723Q152 823 206 897T362 1010T602 1050Q703 1050 772 1027T900
960Q916 967 950 981T1027 1013T1105 1045T1164 1069L1163 898L982 864Q997 832 1006 794T1016 723Q1016 632 969 558T825 440T585 396Q573 396 555 396T523 398Q417 395 377 375T337 329Q337 300 382 289T535 270Q574 268 631 265T759 257Q922 247 1010 174T1098
-23Q1098 -164 972 -253T589 -342ZM622 -223Q765 -223 841 -180T917 -50Q917 12 871 51T729 97L439 116Q400 118 358 97T287 37T257 -49Q257 -131 346 -177T622 -223ZM590 515Q702 515 770 567T839 721Q839 826 771 881T590 936Q477 936 408 881T338 721Q338 623
404 569T590 515Z" />
<glyph unicode="h" horiz-adv-x="1153" d="M153 0V1486H333V882Q359 925 403 962T510 1023T656 1047Q757 1047 839 1010T969 903T1017 739V0H832V702Q832 795 769 845T603 896Q534 896 473 874T375 806T337 690V0H153Z" />
<glyph unicode="i" horiz-adv-x="525" d="M353 1034V0H174V1034H353ZM357 1445V1253H168V1445H357Z" />
<glyph unicode="j" horiz-adv-x="525" d="M367 -46Q367 -191 305 -261T84 -332Q-1 -332 -23 -320T-46 -308V-185L56 -180Q126 -175 154 -143T182 -40V1034H367V-46ZM372 1445V1253H176V1445H372Z" />
<glyph unicode="k" horiz-adv-x="1128" d="M1061 0H865L541 519L337 308V0H153V1486H337V517L823 1034H1035L662 640L1061 0Z" />
<glyph unicode="l" horiz-adv-x="595" d="M414 -13Q330 -13 279 10T200 72T163 161T153 266V1486H335V284Q335 206 365 167T451 124L507 123V3Q484 -4 459 -8T414 -13Z" />
<glyph unicode="m" horiz-adv-x="1730" d="M153 0V1034H331V884Q374 952 449 1003T644 1054Q700 1054 758 1035T866 978T942 885Q990 961 1072 1007T1257 1054Q1311 1054 1370 1038T1479 980T1562 865T1594 676V0H1408V658Q1408 752 1378 803T1300 876T1196 897Q1148
897 1094 878T1002 814T964 691V0H780V712Q780 773 748 814T667 876T570 897Q517 897 464 876T374 810T337 691V0H153Z" />
<glyph unicode="n" horiz-adv-x="1154" d="M153 0V1034H332V884Q357 927 401 965T509 1026T656 1049Q754 1049 836 1010T968 889T1018 676V0H833V658Q833 779 770 837T605 896Q535 896 474 874T375 806T337 691V0H153Z" />
<glyph unicode="o" horiz-adv-x="1124" d="M564 -20Q421 -20 314 41T148 222T89 513Q89 675 144 797T305 986T564 1054Q707 1054 812 992T976 808T1034 513Q1034 355 981 235T823 48T564 -20ZM564 126Q657 126 721 173T818 308T851 517Q851 628 822 716T730 857T564
909Q470 909 405 863T307 728T273 517Q273 408 303 319T397 178T564 126Z" />
<glyph unicode="p" horiz-adv-x="1188" d="M153 -322V1034H337L339 854Q357 886 385 921T455 986T552 1035T679 1054Q803 1054 897 998T1045 825T1098 531Q1098 353 1047 231T898 44T664 -20Q595 -20 542 -1T449 50T383 118T339 187V-322H153ZM629 124Q757 124
838 221T919 525Q919 702 845 806T629 910Q485 910 411 804T337 525Q337 414 370 323T468 178T629 124Z" />
<glyph unicode="q" horiz-adv-x="1188" d="M1035 -322H849V187Q832 154 806 118T740 51T647 0T523 -20Q399 -20 301 37T146 217T89 531Q89 696 137 813T280 992T509 1054Q580 1054 635 1035T732 986T802 921T848 854L851 1034H1035V-322ZM558 124Q655 124 720
178T818 323T851 525Q851 697 777 803T558 910Q431 910 350 815T268 525Q268 338 342 231T558 124Z" />
<glyph unicode="r" horiz-adv-x="775" d="M153 0V1034H329V835Q355 909 402 957T509 1030T635 1054Q658 1054 680 1051T714 1041V862Q699 869 676 871T636 874Q574 878 520 867T425 827T361 754T337 643V0H153Z" />
<glyph unicode="s" horiz-adv-x="1023" d="M520 -20Q412 -20 320 13T166 118T89 301H257Q271 240 307 200T399 139T519 118Q623 118 687 157T751 277Q751 334 718 368T614 419L400 472Q275 502 200 566T125 745Q124 836 168 905T300 1014T519 1054Q687 1054 790
979T898 757H735Q725 831 669 874T517 918Q418 918 356 879T294 756Q294 701 338 670T468 617L675 565Q747 546 793 515T867 446T906 367T918 287Q918 192 871 124T735 18T520 -20Z" />
<glyph unicode="t" horiz-adv-x="805" d="M692 899H459V256Q459 201 470 176T509 143T585 136H698V12Q679 5 641 0T545 -5Q438 -5 379 24T297 110T273 250V899H105V1034H278L323 1335H459V1035H692V899Z" />
<glyph unicode="u" horiz-adv-x="1145" d="M533 -20Q452 -19 381 3T254 70T168 179T136 332V1034H321V351Q321 250 383 187T572 124Q686 124 755 183T825 361V1034H1009V0H862L843 198Q824 120 779 72T670 2T533 -20Z" />
<glyph unicode="v" horiz-adv-x="1006" d="M961 1034L588 0H420L46 1034H220L495 232H512L788 1034H961Z" />
<glyph unicode="w" horiz-adv-x="1571" d="M1513 1034L1200 0H1018L782 763L558 0H377L58 1034H229L466 239H482L715 1034H855L1097 241H1113L1340 1034H1513Z" />
<glyph unicode="x" horiz-adv-x="1126" d="M1065 0H864L563 405L264 0H61L460 537L93 1034H295L563 671L832 1034H1034L666 537L1065 0Z" />
<glyph unicode="y" horiz-adv-x="1067" d="M255 -330Q164 -330 130 -317T96 -304V-184L201 -186Q259 -188 297 -178T358 -151T393 -113T414 -73L450 25L46 1034H233L538 236L841 1034H1022L586 -78Q546 -176 497 -231T387 -308T255 -330Z" />
<glyph unicode="z" horiz-adv-x="953" d="M76 0V115L660 898H101V1034H880V919L297 136H885V0H76Z" />
<glyph unicode="{" horiz-adv-x="655" d="M243 1241Q243 1305 277 1351T369 1421T501 1446H602V1327H530Q479 1327 453 1315T416 1280T406 1225V799Q405 725 377 677T303 603T209 573Q197 572 197 567T209 560Q257 556 302 534T376 463T406 333V-97Q406 -152 432
-177T531 -203H602V-322H504Q426 -322 368 -297T276 -224T243 -112V320Q243 367 219 410T145 482T17 510V622Q134 623 188 678T243 821V1241Z" />
<glyph unicode="|" horiz-adv-x="526" d="M336 -322H192L191 1652H336V-322Z" />
<glyph unicode="}" horiz-adv-x="664" d="M397 1241Q397 1305 363 1351T271 1421T139 1446H38V1327H110Q161 1327 187 1315T224 1280T234 1225V799Q235 725 263 677T337 603T431 573Q443 572 443 567T431 560Q383 556 338 534T264 463T234 333V-97Q234 -152 208
-177T109 -203H38V-322H136Q214 -322 272 -297T364 -224T397 -112V320Q397 367 421 410T495 482T623 510V622Q506 623 452 678T397 821V1241Z" />
<glyph unicode="~" horiz-adv-x="1136" d="M1013 746Q977 689 912 652T758 614Q699 614 653 630T565 666T482 703T389 719Q313 719 262 683T170 605L117 710Q173 765 235 805T387 846Q444 846 490 830T579 794T664 757T757 741Q832 741 879 775T957 853L1013 746Z" />
<glyph unicode="&#xa0;" horiz-adv-x="461" />
<glyph unicode="&#xa1;" horiz-adv-x="499" d="M356 801H136V1034H356V801ZM358 -322H136L185 665H308L358 -322Z" />
<glyph unicode="&#xa2;" horiz-adv-x="1086" d="M646 0H509V286H646V0ZM646 1160H509V1446H646V1160ZM579 1276Q690 1276 778 1234T924 1113T995 929H831Q821 983 789 1028T704 1100T580 1127Q447 1127 364 1031T281 737Q281 558 357 451T583 343Q653 343 706
370T791 443T832 541H993Q980 437 923 361T778 244T579 202Q439 202 332 263T164 443T103 735Q103 897 158 1018T320 1208T579 1276Z" />
<glyph unicode="&#xa3;" horiz-adv-x="1226" d="M30 0V159H105Q181 159 233 224T286 433Q286 484 281 542T263 688H61V806H241L211 971Q188 1088 212 1179T297 1334T441 1432T620 1466Q716 1466 798 1435T940 1351T1029 1229L865 1171Q831 1240 781 1274T644 1308Q578
1308 525 1282T440 1206T408 1085Q408 1029 420 955T454 807H777V689H470Q481 618 484 566T482 460Q478 374 459 316T414 221T366 161H714Q816 161 876 197T971 324L1130 282Q1084 141 982 71T725 0H30Z" />
<glyph unicode="&#xa4;" horiz-adv-x="1079" d="M536 346Q420 346 327 407Q311 418 299 404L192 295L103 389L222 506Q188 556 171 610T154 727Q154 843 214 932Q222 949 211 960L104 1068L194 1159L314 1037Q360 1071 417 1089T532 1108Q649 1108 740 1045Q755
1037 765 1047L872 1155L961 1063L843 946Q877 898 895 843T913 728Q913 672 898 619T851 521Q844 508 853 500L963 394L874 302L756 419Q708 385 653 366T536 346ZM536 485Q605 485 660 519T746 608T778 728Q778 792 747 847T660 936T536 971Q467 971 412 937T326
847T294 728Q294 663 325 608T412 519T536 485Z" />
<glyph unicode="&#xa5;" horiz-adv-x="1223" d="M1214 1446L723 638V0H512V605L9 1446H250L632 785L1015 1446H1214ZM1028 677V561L207 559V676L1028 677ZM1028 383V267L207 266V382L1028 383Z" />
<glyph unicode="&#xa6;" horiz-adv-x="526" d="M336 850H192L191 1652H336V850ZM336 -322H192L191 480H336V-322Z" />
<glyph unicode="&#xa7;" horiz-adv-x="981" d="M504 -144Q406 -144 321 -114T171 -32T73 88L195 152Q240 82 318 34T504 -15Q600 -15 662 22T725 128Q725 178 685 222T531 311L360 377Q220 430 159 501T97 669Q97 762 152 828T293 930Q217 970 176 1011T120 1096T104
1186Q104 1265 150 1328T280 1429T479 1466Q570 1466 645 1438T777 1363T866 1262L743 1197Q697 1255 635 1296T488 1338Q388 1338 332 1301T276 1202Q276 1158 311 1119T432 1045L597 979Q755 916 823 839T891 657Q891 559 839 500T713 401Q804 350 851 290T898
147Q898 63 850 -2T714 -106T504 -144ZM551 473Q600 469 641 490T705 549T728 632Q726 691 692 735T558 819L449 861Q395 857 352 833T284 771T258 693Q258 640 292 604T432 524L551 473Z" />
<glyph unicode="&#xa8;" horiz-adv-x="591" d="M399 1216L400 1395H581L580 1216H399ZM10 1216L11 1395H192L191 1216H10Z" />
<glyph unicode="&#xa9;" horiz-adv-x="1634" d="M814 -20Q660 -20 525 37T288 197T128 434T70 724Q70 877 127 1011T287 1248T525 1408T814 1466Q967 1466 1101 1408T1338 1248T1498 1012T1556 724Q1556 569 1498 434T1338 197T1102 38T814 -20ZM814 105Q939 105
1049 148T1244 273T1376 468T1424 724Q1424 864 1377 978T1245 1174T1050 1300T814 1344Q685 1344 574 1300T380 1174T250 978T203 724Q203 583 249 469T379 273T574 149T814 105ZM818 1146Q902 1146 966 1114T1075 1032T1149 923L1012 891Q979 954 934 992T825
1031Q724 1031 660 952T595 731Q595 586 661 506T830 426Q905 426 959 468T1048 578L1152 540Q1132 499 1101 458T1029 384T936 331T818 311Q705 311 619 363T484 509T435 727Q435 851 484 945T620 1092T818 1146Z" />
<glyph unicode="&#xaa;" horiz-adv-x="842" d="M315 792Q212 792 155 841T98 973Q98 1068 182 1124T423 1190L533 1200V1246Q533 1313 494 1341T390 1369Q339 1369 300 1350T227 1274L115 1304Q150 1380 218 1421T398 1462Q533 1462 595 1405T658 1246Q658 1166
658 1111T658 1011Q658 996 659 972T661 923T666 876L678 804H548L531 889Q478 840 429 816T315 792ZM358 882Q434 882 487 931Q509 951 521 969T533 1011V1118L442 1111Q336 1104 283 1070T229 980Q229 936 264 909T358 882Z" />
<glyph unicode="&#xab;" horiz-adv-x="909" d="M601 502L800 140H695L433 502L696 880H802L601 502ZM247 502L446 140H342L81 502L343 880H449L247 502Z" />
<glyph unicode="&#xac;" horiz-adv-x="1109" d="M986 799V656L123 654V798L986 799ZM986 756V369H832L830 756H986Z" />
<glyph unicode="&#xad;" horiz-adv-x="755" d="M631 590V444L124 443V588L631 590Z" />
<glyph unicode="&#xae;" horiz-adv-x="1078" d="M536 536Q406 536 301 598T133 765T70 1000Q70 1129 132 1235T300 1403T536 1466Q664 1466 769 1404T937 1235T1000 1000Q1000 871 938 766T770 598T536 536ZM536 628Q644 628 726 674T855 803T902 1000Q902 1113
856 1197T727 1327T536 1374Q426 1374 343 1328T215 1197T169 1000Q169 887 214 804T343 674T536 628ZM357 767V1228H566Q642 1228 683 1199T725 1111Q725 1058 695 1029T629 987L718 767H625L548 978H444V767H357ZM444 1047H556Q589 1047 612 1059T636 1103Q636
1127 618 1144T550 1161H444V1047Z" />
<glyph unicode="&#xaf;" horiz-adv-x="656" d="M623 1365V1235H26V1365H623Z" />
<glyph unicode="&#xb0;" horiz-adv-x="926" d="M773 1358Q773 1266 732 1196T620 1085T460 1045Q369 1045 298 1085T187 1195T146 1358Q146 1450 186 1521T298 1632T460 1673Q549 1673 620 1633T732 1521T773 1358ZM643 1356Q643 1442 593 1496T456 1550Q371 1550
320 1496T270 1356Q272 1270 322 1216T458 1161Q544 1161 593 1215T643 1356Z" />
<glyph unicode="&#xb1;" horiz-adv-x="1109" d="M986 261V118L123 117V259L986 261ZM986 952V809L123 808V951L986 952ZM627 449H485L483 1312H627V449Z" />
<glyph unicode="&#xb2;" horiz-adv-x="734" d="M65 747V821V857Q65 939 99 995T188 1092T304 1165T419 1231T508 1306T543 1409Q543 1477 496 1518T367 1560Q283 1560 228 1513T166 1377H46Q46 1457 83 1523T192 1629T372 1669Q510 1669 590 1598T671 1409Q671
1328 637 1272T550 1177T437 1106T323 1044T235 971T201 871V856H677V747H65Z" />
<glyph unicode="&#xb3;" horiz-adv-x="803" d="M77 1388Q76 1475 117 1537T230 1634T392 1669Q487 1669 559 1642T672 1562T713 1433Q713 1366 672 1313T548 1229Q632 1204 685 1147T738 1001Q738 917 692 858T567 767T387 736Q242 737 155 813T65 1014H187Q199
930 254 886T391 842Q490 842 548 886T607 1001Q607 1076 547 1121T383 1168L299 1170V1274L379 1276Q436 1277 482 1298T555 1353T583 1429Q583 1485 533 1525T391 1566Q343 1566 300 1547T228 1489T198 1388H77Z" />
<glyph unicode="&#xb4;" horiz-adv-x="437" d="M216 1446H426L153 1155H10L216 1446Z" />
<glyph unicode="&#xb5;" horiz-adv-x="1155" d="M136 -330V1060H326V337Q326 288 353 248T428 183T532 158Q615 158 688 205T827 333V1060H1019L1016 0H833V164Q745 88 679 53T539 14Q479 10 426 23T326 72V-330H136Z" />
<glyph unicode="&#xb6;" horiz-adv-x="1115" d="M979 1332H858V-166H735V1332H633V-166H510V595Q383 599 289 654T142 801T89 1010Q89 1122 140 1222T294 1384T548 1446H979V1332Z" />
<glyph unicode="&#xb7;" horiz-adv-x="460" d="M339 839V618H110V839H339Z" />
<glyph unicode="&#xb8;" horiz-adv-x="462" d="M429 -257Q429 -308 400 -342T321 -394T213 -412Q159 -412 112 -400T23 -362L54 -284Q80 -303 113 -317T191 -331Q246 -331 272 -312T299 -258Q299 -215 262 -194T139 -170Q129 -170 127 -167T127 -157L200 10H297L250
-111Q318 -114 357 -136T413 -191T429 -257Z" />
<glyph unicode="&#xb9;" horiz-adv-x="479" d="M220 744V1462H46V1545Q164 1545 209 1570T257 1654H347V744H220Z" />
<glyph unicode="&#xba;" horiz-adv-x="805" d="M402 1465Q499 1465 569 1422T677 1303T716 1127Q716 1030 679 955T571 838T402 795Q304 795 234 837T127 955T89 1127Q89 1228 128 1304T238 1422T402 1465ZM402 1368Q314 1368 270 1305T226 1132Q226 1018 270
954T402 890Q491 890 535 954T580 1132Q580 1242 536 1305T402 1368Z" />
<glyph unicode="&#xbb;" horiz-adv-x="957" d="M326 502L125 880H229L491 502L231 140H127L326 502ZM680 502L477 880H583L845 502L584 140H480L680 502Z" />
<glyph unicode="&#xbc;" horiz-adv-x="1583" d="M220 536V1254H46V1337Q164 1337 209 1362T257 1446H347V536H220ZM1307 1462L335 -8L210 -7L1186 1462H1307ZM1265 911H1388V340H1538V232H1388V2H1268V232H844V341L1265 911ZM963 340H1266V746L963 340Z" />
<glyph unicode="&#xbd;" horiz-adv-x="1733" d="M220 536V1254H46V1337Q164 1337 209 1362T257 1446H347V536H220ZM1307 1462L335 -8L210 -7L1186 1462H1307ZM1064 -1V73V109Q1064 191 1098 247T1187 344T1303 417T1418 483T1507 558T1542 661Q1542 729 1495 770T1366
812Q1282 812 1227 765T1165 629H1045Q1045 709 1082 775T1191 881T1371 921Q1509 921 1589 850T1670 661Q1670 580 1636 524T1549 429T1436 358T1322 296T1234 223T1200 123V108H1676V-1H1064Z" />
<glyph unicode="&#xbe;" horiz-adv-x="1837" d="M77 1178Q76 1265 117 1327T230 1424T392 1459Q487 1459 559 1432T672 1352T713 1223Q713 1156 672 1103T548 1019Q632 994 685 937T738 791Q738 707 692 648T567 557T387 526Q242 527 155 603T65 804H187Q199 720
254 676T391 632Q490 632 548 676T607 791Q607 866 547 911T383 958L299 960V1064L379 1066Q436 1067 482 1088T555 1143T583 1219Q583 1275 533 1315T391 1356Q343 1356 300 1337T228 1279T198 1178H77ZM1560 1462L588 -8L463 -7L1439 1462H1560ZM1519 911H1642V340H1792V232H1642V2H1522V232H1098V341L1519
911ZM1217 340H1520V746L1217 340Z" />
<glyph unicode="&#xbf;" horiz-adv-x="1036" d="M431 801V1034H652V801H431ZM983 -52Q919 -188 794 -265T507 -342Q366 -342 267 -297T115 -173T63 7Q63 90 92 148T166 252T262 338T359 424T433 528T462 668H621Q621 575 595 508T526 390T437 297T348 214T280
126T253 15Q253 -82 323 -139T508 -197Q573 -197 636 -172T747 -102T818 -2L983 -52Z" />
<glyph unicode="&#xc0;" horiz-adv-x="1420" d="M83 0L606 1446H815L1338 0H1149L1007 396H416L271 0H83ZM463 566H958L712 1263L463 566ZM574 1858H364L637 1567H780L574 1858Z" />
<glyph unicode="&#xc1;" horiz-adv-x="1420" d="M83 0L606 1446H815L1338 0H1149L1007 396H416L271 0H83ZM463 566H958L712 1263L463 566ZM842 1858H1052L779 1567H636L842 1858Z" />
<glyph unicode="&#xc2;" horiz-adv-x="1420" d="M83 0L606 1446H815L1338 0H1149L1007 396H416L271 0H83ZM463 566H958L712 1263L463 566ZM849 1567L709 1697L558 1567H394L645 1792H777L1023 1567H849Z" />
<glyph unicode="&#xc3;" horiz-adv-x="1420" d="M83 0L606 1446H815L1338 0H1149L1007 396H416L271 0H83ZM463 566H958L712 1263L463 566ZM1014 1694Q988 1675 947 1656T842 1636Q788 1636 748 1649T671 1675T587 1688Q538 1688 508 1672T447 1631L412 1741Q446
1772 484 1794T579 1816Q628 1816 671 1802T756 1774T842 1760Q887 1760 920 1776T982 1816L1014 1694Z" />
<glyph unicode="&#xc4;" horiz-adv-x="1420" d="M83 0L606 1446H815L1338 0H1149L1007 396H416L271 0H83ZM463 566H958L712 1263L463 566ZM814 1628L815 1807H996L995 1628H814ZM425 1628L426 1807H607L606 1628H425Z" />
<glyph unicode="&#xc5;" horiz-adv-x="1420" d="M83 0L606 1446H815L1338 0H1149L1007 396H416L271 0H83ZM463 566H958L712 1263L463 566ZM918 1772Q918 1685 858 1626T711 1566Q625 1566 565 1626T505 1776Q505 1858 566 1916T711 1975Q769 1975 816 1948T890
1874T918 1772ZM815 1771Q815 1818 785 1847T709 1877Q666 1877 634 1848T601 1771Q601 1728 633 1695T709 1662Q754 1662 784 1695T815 1771Z" />
<glyph unicode="&#xc6;" horiz-adv-x="1949" d="M1829 161V0H904V401H411L189 0H0L800 1446H1805L1804 1286H1115V809H1732V650H1115V161H1829ZM904 566V1312L484 566H904Z" />
<glyph unicode="&#xc7;" horiz-adv-x="1377" d="M723 1466Q876 1466 994 1403T1184 1233T1269 1000H1072Q1056 1085 1011 1154T893 1264T718 1305Q587 1305 497 1244T360 1054T313 726Q313 424 416 283T718 141Q820 141 893 184T1011 299T1072 455H1269Q1258 363
1220 278T1114 125T950 19T723 -20Q528 -20 391 69T181 325T108 728Q108 963 180 1128T389 1379T723 1466ZM912 -257Q912 -308 883 -342T804 -394T696 -412Q642 -412 595 -400T506 -362L537 -284Q563 -303 596 -317T674 -331Q729 -331 755 -312T782 -258Q782 -215
745 -194T622 -170Q612 -170 610 -167T610 -157L683 10H780L733 -111Q801 -114 840 -136T896 -191T912 -257Z" />
<glyph unicode="&#xc8;" horiz-adv-x="1241" d="M191 0V1446H1103L1102 1283H377V811H1030V649H376V167L1122 165V0H191ZM514 1858H304L577 1567H720L514 1858Z" />
<glyph unicode="&#xc9;" horiz-adv-x="1241" d="M191 0V1446H1103L1102 1283H377V811H1030V649H376V167L1122 165V0H191ZM781 1858H991L718 1567H575L781 1858Z" />
<glyph unicode="&#xca;" horiz-adv-x="1241" d="M191 0V1446H1103L1102 1283H377V811H1030V649H376V167L1122 165V0H191ZM789 1567L649 1697L498 1567H334L585 1792H717L963 1567H789Z" />
<glyph unicode="&#xcb;" horiz-adv-x="1241" d="M191 0V1446H1103L1102 1283H377V811H1030V649H376V167L1122 165V0H191ZM753 1628L754 1807H935L934 1628H753ZM364 1628L365 1807H546L545 1628H364Z" />
<glyph unicode="&#xcc;" horiz-adv-x="566" d="M191 1446H376V0H191V1446ZM148 1858H-62L211 1567H354L148 1858Z" />
<glyph unicode="&#xcd;" horiz-adv-x="566" d="M191 1446H376V0H191V1446ZM416 1858H626L353 1567H210L416 1858Z" />
<glyph unicode="&#xce;" horiz-adv-x="566" d="M191 1446H376V0H191V1446ZM424 1567L284 1697L133 1567H-31L220 1792H352L598 1567H424Z" />
<glyph unicode="&#xcf;" horiz-adv-x="566" d="M191 1446H376V0H191V1446ZM388 1628L389 1807H570L569 1628H388ZM-1 1628L0 1807H181L180 1628H-1Z" />
<glyph unicode="&#xd0;" horiz-adv-x="1414" d="M736 797V650H70V797H736ZM218 1446Q225 1446 260 1446T346 1445T453 1446T554 1444Q820 1440 985 1358T1228 1118T1306 732Q1306 492 1223 329T968 83T535 0H218V1446ZM408 1287V159H535Q714 159 843 214T1041
395T1111 729Q1111 938 1044 1060T849 1234T543 1287H408Z" />
<glyph unicode="&#xd1;" horiz-adv-x="1508" d="M1132 1446H1317V0H1152L376 1140V0H191V1446H368L1132 322V1446ZM1057 1694Q1031 1675 990 1656T885 1636Q831 1636 791 1649T714 1675T630 1688Q581 1688 551 1672T490 1631L455 1741Q489 1772 527 1794T622 1816Q671
1816 714 1802T799 1774T885 1760Q930 1760 963 1776T1025 1816L1057 1694Z" />
<glyph unicode="&#xd2;" horiz-adv-x="1468" d="M736 -20Q543 -20 402 67T185 319T108 720Q108 957 185 1123T403 1378T736 1466Q928 1466 1068 1379T1284 1125T1360 720Q1360 485 1285 320T1069 67T736 -20ZM736 141Q870 141 964 202T1107 391T1157 718Q1157
920 1107 1050T963 1242T736 1305Q604 1305 509 1242T363 1049T312 718Q312 519 363 391T509 202T736 141ZM601 1858H391L664 1567H807L601 1858Z" />
<glyph unicode="&#xd3;" horiz-adv-x="1468" d="M736 -20Q543 -20 402 67T185 319T108 720Q108 957 185 1123T403 1378T736 1466Q928 1466 1068 1379T1284 1125T1360 720Q1360 485 1285 320T1069 67T736 -20ZM736 141Q870 141 964 202T1107 391T1157 718Q1157
920 1107 1050T963 1242T736 1305Q604 1305 509 1242T363 1049T312 718Q312 519 363 391T509 202T736 141ZM868 1858H1078L805 1567H662L868 1858Z" />
<glyph unicode="&#xd4;" horiz-adv-x="1468" d="M736 -20Q543 -20 402 67T185 319T108 720Q108 957 185 1123T403 1378T736 1466Q928 1466 1068 1379T1284 1125T1360 720Q1360 485 1285 320T1069 67T736 -20ZM736 141Q870 141 964 202T1107 391T1157 718Q1157
920 1107 1050T963 1242T736 1305Q604 1305 509 1242T363 1049T312 718Q312 519 363 391T509 202T736 141ZM876 1567L736 1697L585 1567H421L672 1792H804L1050 1567H876Z" />
<glyph unicode="&#xd5;" horiz-adv-x="1468" d="M736 -20Q543 -20 402 67T185 319T108 720Q108 957 185 1123T403 1378T736 1466Q928 1466 1068 1379T1284 1125T1360 720Q1360 485 1285 320T1069 67T736 -20ZM736 141Q870 141 964 202T1107 391T1157 718Q1157
920 1107 1050T963 1242T736 1305Q604 1305 509 1242T363 1049T312 718Q312 519 363 391T509 202T736 141ZM1041 1694Q1015 1675 974 1656T869 1636Q815 1636 775 1649T698 1675T614 1688Q565 1688 535 1672T474 1631L439 1741Q473 1772 511 1794T606 1816Q655
1816 698 1802T783 1774T869 1760Q914 1760 947 1776T1009 1816L1041 1694Z" />
<glyph unicode="&#xd6;" horiz-adv-x="1468" d="M736 -20Q543 -20 402 67T185 319T108 720Q108 957 185 1123T403 1378T736 1466Q928 1466 1068 1379T1284 1125T1360 720Q1360 485 1285 320T1069 67T736 -20ZM736 141Q870 141 964 202T1107 391T1157 718Q1157
920 1107 1050T963 1242T736 1305Q604 1305 509 1242T363 1049T312 718Q312 519 363 391T509 202T736 141ZM841 1628L842 1807H1023L1022 1628H841ZM452 1628L453 1807H634L633 1628H452Z" />
<glyph unicode="&#xd7;" horiz-adv-x="1080" d="M955 414L852 311L123 1040L225 1141L955 414ZM227 311L125 414L852 1144L955 1043L227 311Z" />
<glyph unicode="&#xd8;" horiz-adv-x="1501" d="M156 -27L56 71L227 258Q175 346 148 461T121 717Q121 955 197 1122T414 1378T748 1466Q883 1466 992 1423T1180 1296L1342 1471L1441 1375L1266 1182Q1318 1093 1345 977T1373 720Q1373 485 1297 320T1081 67T747
-20Q612 -20 503 22T316 146L156 -27ZM749 140Q938 140 1035 263T1140 645Q1144 748 1134 840T1100 1014L445 280Q546 140 749 140ZM392 426L1049 1161Q999 1236 924 1272T748 1308Q558 1308 458 1178T350 780Q347 679 357 591T392 426Z" />
<glyph unicode="&#xd9;" horiz-adv-x="1401" d="M1248 500Q1248 333 1193 217T1022 41T719 -20Q531 -20 415 42T245 224T191 519V1446H383V491Q383 316 470 229T719 142Q828 142 904 180T1021 295T1062 491V1446H1248V500ZM585 1858H375L648 1567H791L585 1858Z" />
<glyph unicode="&#xda;" horiz-adv-x="1401" d="M1248 500Q1248 333 1193 217T1022 41T719 -20Q531 -20 415 42T245 224T191 519V1446H383V491Q383 316 470 229T719 142Q828 142 904 180T1021 295T1062 491V1446H1248V500ZM853 1858H1063L790 1567H647L853 1858Z" />
<glyph unicode="&#xdb;" horiz-adv-x="1401" d="M1248 500Q1248 333 1193 217T1022 41T719 -20Q531 -20 415 42T245 224T191 519V1446H383V491Q383 316 470 229T719 142Q828 142 904 180T1021 295T1062 491V1446H1248V500ZM861 1567L721 1697L570 1567H406L657
1792H789L1035 1567H861Z" />
<glyph unicode="&#xdc;" horiz-adv-x="1401" d="M1248 500Q1248 333 1193 217T1022 41T719 -20Q531 -20 415 42T245 224T191 519V1446H383V491Q383 316 470 229T719 142Q828 142 904 180T1021 295T1062 491V1446H1248V500ZM825 1628L826 1807H1007L1006 1628H825ZM436
1628L437 1807H618L617 1628H436Z" />
<glyph unicode="&#xdd;" horiz-adv-x="1214" d="M1191 1446L701 615V0H517V616L24 1446H226L610 781L988 1446H1191ZM756 1861H966L693 1570H550L756 1861Z" />
<glyph unicode="&#xde;" horiz-adv-x="1301" d="M1244 749Q1244 604 1176 511T989 372T716 327H381V0H191V1446H381V1149H708Q865 1149 986 1107T1175 975T1244 749ZM1051 749Q1051 835 1006 887T883 964T707 988L381 989V488H716Q809 488 885 514T1006 598T1051 749Z" />
<glyph unicode="&#xdf;" horiz-adv-x="1195" d="M604 1446Q729 1446 806 1408T920 1306T956 1169Q956 1094 925 1045T840 962T716 895Q657 863 633 844T608 790Q608 756 631 741T713 707Q772 684 837 657T960 587T1053 482T1090 322Q1090 211 1038 135T897 19T695
-20Q621 -20 547 -1T422 49L487 172Q528 148 572 130T683 111Q789 111 853 161T918 304Q918 373 884 414T795 480T673 528Q621 547 572 573T492 642T460 755Q460 830 501 879T625 975Q663 1000 699 1024T759 1081T783 1164Q783 1232 733 1273T589 1314Q476 1314
407 1246T337 1044V0H155L153 1011Q154 1105 182 1184T267 1322T408 1413T604 1446Z" />
<glyph unicode="&#xe0;" horiz-adv-x="1129" d="M439 -20Q339 -20 262 15T142 118T98 280Q98 452 218 536T603 626L788 631V712Q788 807 731 862T554 918Q465 917 398 876T310 742H147Q153 843 204 912T346 1018T563 1054Q698 1054 787 1016T921 904T966 722V0H808L795
194Q735 73 643 27T439 -20ZM495 113Q547 113 598 132T693 183T761 256T788 340V517L634 514Q516 512 437 490T318 421T278 298Q278 211 338 162T495 113ZM428 1446H218L491 1155H634L428 1446Z" />
<glyph unicode="&#xe1;" horiz-adv-x="1129" d="M439 -20Q339 -20 262 15T142 118T98 280Q98 452 218 536T603 626L788 631V712Q788 807 731 862T554 918Q465 917 398 876T310 742H147Q153 843 204 912T346 1018T563 1054Q698 1054 787 1016T921 904T966 722V0H808L795
194Q735 73 643 27T439 -20ZM495 113Q547 113 598 132T693 183T761 256T788 340V517L634 514Q516 512 437 490T318 421T278 298Q278 211 338 162T495 113ZM696 1446H906L633 1155H490L696 1446Z" />
<glyph unicode="&#xe2;" horiz-adv-x="1129" d="M439 -20Q339 -20 262 15T142 118T98 280Q98 452 218 536T603 626L788 631V712Q788 807 731 862T554 918Q465 917 398 876T310 742H147Q153 843 204 912T346 1018T563 1054Q698 1054 787 1016T921 904T966 722V0H808L795
194Q735 73 643 27T439 -20ZM495 113Q547 113 598 132T693 183T761 256T788 340V517L634 514Q516 512 437 490T318 421T278 298Q278 211 338 162T495 113ZM703 1155L563 1285L412 1155H248L499 1380H631L877 1155H703Z" />
<glyph unicode="&#xe3;" horiz-adv-x="1129" d="M439 -20Q339 -20 262 15T142 118T98 280Q98 452 218 536T603 626L788 631V712Q788 807 731 862T554 918Q465 917 398 876T310 742H147Q153 843 204 912T346 1018T563 1054Q698 1054 787 1016T921 904T966 722V0H808L795
194Q735 73 643 27T439 -20ZM495 113Q547 113 598 132T693 183T761 256T788 340V517L634 514Q516 512 437 490T318 421T278 298Q278 211 338 162T495 113ZM868 1282Q842 1263 801 1244T696 1224Q642 1224 602 1237T525 1263T441 1276Q392 1276 362 1260T301 1219L266
1329Q300 1360 338 1382T433 1404Q482 1404 525 1390T610 1362T696 1348Q741 1348 774 1364T836 1404L868 1282Z" />
<glyph unicode="&#xe4;" horiz-adv-x="1129" d="M439 -20Q339 -20 262 15T142 118T98 280Q98 452 218 536T603 626L788 631V712Q788 807 731 862T554 918Q465 917 398 876T310 742H147Q153 843 204 912T346 1018T563 1054Q698 1054 787 1016T921 904T966 722V0H808L795
194Q735 73 643 27T439 -20ZM495 113Q547 113 598 132T693 183T761 256T788 340V517L634 514Q516 512 437 490T318 421T278 298Q278 211 338 162T495 113ZM668 1216L669 1395H850L849 1216H668ZM279 1216L280 1395H461L460 1216H279Z" />
<glyph unicode="&#xe5;" horiz-adv-x="1129" d="M439 -20Q339 -20 262 15T142 118T98 280Q98 452 218 536T603 626L788 631V712Q788 807 731 862T554 918Q465 917 398 876T310 742H147Q153 843 204 912T346 1018T563 1054Q698 1054 787 1016T921 904T966 722V0H808L795
194Q735 73 643 27T439 -20ZM495 113Q547 113 598 132T693 183T761 256T788 340V517L634 514Q516 512 437 490T318 421T278 298Q278 211 338 162T495 113ZM771 1360Q771 1273 711 1214T564 1154Q478 1154 418 1214T358 1364Q358 1446 419 1504T564 1563Q622 1563
669 1536T743 1462T771 1360ZM668 1359Q668 1406 638 1435T562 1465Q519 1465 487 1436T454 1359Q454 1316 486 1283T562 1250Q607 1250 637 1283T668 1359Z" />
<glyph unicode="&#xe6;" horiz-adv-x="1817" d="M439 -20Q339 -20 262 15T142 118T98 280Q98 452 218 536T604 626L788 631V712Q788 811 725 864T554 918Q466 917 398 874T310 742H147Q152 832 203 902T347 1013T563 1054Q697 1054 787 1013T921 898T966 722L868
275Q859 185 799 119T645 17T439 -20ZM495 113Q583 113 649 154T751 254T788 372V517L634 514Q516 512 437 490T318 421T278 298Q278 211 338 162T495 113ZM976 474Q976 376 1008 297T1107 170T1274 123Q1373 123 1444 169T1536 302H1710Q1692 197 1627 125T1470
17T1277 -20Q1133 -20 1023 43T851 224T789 507Q789 670 845 793T1007 985T1264 1054Q1410 1054 1511 991T1664 814T1717 542V474H976ZM977 599H1539Q1539 688 1509 759T1418 872T1263 914Q1166 914 1103 868T1008 749T977 599Z" />
<glyph unicode="&#xe7;" horiz-adv-x="1079" d="M565 1054Q676 1054 765 1012T910 891T981 707H817Q808 761 776 806T690 878T566 905Q433 905 350 809T267 515Q267 336 343 229T569 121Q640 121 692 148T777 221T818 319H979Q966 215 909 139T764 22T565 -20Q426
-20 319 41T150 221T89 513Q89 675 144 796T306 986T565 1054ZM751 -257Q751 -308 722 -342T643 -394T535 -412Q481 -412 434 -400T345 -362L376 -284Q402 -303 435 -317T513 -331Q568 -331 594 -312T621 -258Q621 -215 584 -194T461 -170Q451 -170 449 -167T449
-157L522 10H619L572 -111Q640 -114 679 -136T735 -191T751 -257Z" />
<glyph unicode="&#xe8;" horiz-adv-x="1126" d="M285 474Q285 376 317 297T416 170T583 123Q682 123 753 169T845 302H1020Q1001 197 936 125T779 17T587 -20Q442 -20 332 43T160 224T98 507Q98 670 154 793T316 985T573 1054Q719 1054 820 991T973 814T1026 542V474H285ZM286
599H848Q848 688 818 759T727 872T572 914Q475 914 412 868T317 749T286 599ZM438 1446H228L501 1155H644L438 1446Z" />
<glyph unicode="&#xe9;" horiz-adv-x="1126" d="M285 474Q285 376 317 297T416 170T583 123Q682 123 753 169T845 302H1020Q1001 197 936 125T779 17T587 -20Q442 -20 332 43T160 224T98 507Q98 670 154 793T316 985T573 1054Q719 1054 820 991T973 814T1026 542V474H285ZM286
599H848Q848 688 818 759T727 872T572 914Q475 914 412 868T317 749T286 599ZM705 1446H915L642 1155H499L705 1446Z" />
<glyph unicode="&#xea;" horiz-adv-x="1126" d="M285 474Q285 376 317 297T416 170T583 123Q682 123 753 169T845 302H1020Q1001 197 936 125T779 17T587 -20Q442 -20 332 43T160 224T98 507Q98 670 154 793T316 985T573 1054Q719 1054 820 991T973 814T1026 542V474H285ZM286
599H848Q848 688 818 759T727 872T572 914Q475 914 412 868T317 749T286 599ZM713 1155L573 1285L422 1155H258L509 1380H641L887 1155H713Z" />
<glyph unicode="&#xeb;" horiz-adv-x="1126" d="M285 474Q285 376 317 297T416 170T583 123Q682 123 753 169T845 302H1020Q1001 197 936 125T779 17T587 -20Q442 -20 332 43T160 224T98 507Q98 670 154 793T316 985T573 1054Q719 1054 820 991T973 814T1026 542V474H285ZM286
599H848Q848 688 818 759T727 872T572 914Q475 914 412 868T317 749T286 599ZM677 1216L678 1395H859L858 1216H677ZM288 1216L289 1395H470L469 1216H288Z" />
<glyph unicode="&#xec;" horiz-adv-x="514" d="M346 1034V0H168V1034H346ZM379 1446H169L442 1155H585L379 1446Z" />
<glyph unicode="&#xed;" horiz-adv-x="514" d="M346 1034V0H168V1034H346ZM326 1446H529L325 1155L185 1156L326 1446Z" />
<glyph unicode="&#xee;" horiz-adv-x="514" d="M346 1034V0H168V1034H346ZM654 1155L514 1285L363 1155H199L450 1380H582L828 1155H654Z" />
<glyph unicode="&#xef;" horiz-adv-x="627" d="M402 1034V0H224V1034H402ZM416 1470L417 1649H598L597 1470H416ZM27 1470L28 1649H209L208 1470H27Z" />
<glyph unicode="&#xf0;" horiz-adv-x="1163" d="M584 -20Q435 -20 324 49T151 238T89 506Q89 631 125 729T227 897T380 1004T569 1041Q666 1041 735 1016T851 947T927 847Q899 984 843 1084T716 1255T574 1374T443 1455L661 1480Q785 1411 866 1319T994 1109T1058
847T1073 530Q1071 370 1011 246T842 51T584 -20ZM579 126Q679 126 745 182T843 327T876 517Q876 636 845 724T749 861T579 909Q478 909 410 857T308 717T273 517Q273 418 307 328T410 182T579 126ZM402 1092V1231L1025 1456V1318L402 1092Z" />
<glyph unicode="&#xf1;" horiz-adv-x="1154" d="M153 0V1034H332V884Q357 927 401 965T509 1026T656 1049Q754 1049 836 1010T968 889T1018 676V0H833V658Q833 779 770 837T605 896Q535 896 474 874T375 806T337 691V0H153ZM902 1282Q876 1263 835 1244T730 1224Q676
1224 636 1237T559 1263T475 1276Q426 1276 396 1260T335 1219L300 1329Q334 1360 372 1382T467 1404Q516 1404 559 1390T644 1362T730 1348Q775 1348 808 1364T870 1404L902 1282Z" />
<glyph unicode="&#xf2;" horiz-adv-x="1124" d="M564 -20Q421 -20 314 41T148 222T89 513Q89 675 144 797T305 986T564 1054Q707 1054 812 992T976 808T1034 513Q1034 355 981 235T823 48T564 -20ZM564 126Q657 126 721 173T818 308T851 517Q851 628 822 716T730
857T564 909Q470 909 405 863T307 728T273 517Q273 408 303 319T397 178T564 126ZM427 1446H217L490 1155H633L427 1446Z" />
<glyph unicode="&#xf3;" horiz-adv-x="1124" d="M564 -20Q421 -20 314 41T148 222T89 513Q89 675 144 797T305 986T564 1054Q707 1054 812 992T976 808T1034 513Q1034 355 981 235T823 48T564 -20ZM564 126Q657 126 721 173T818 308T851 517Q851 628 822 716T730
857T564 909Q470 909 405 863T307 728T273 517Q273 408 303 319T397 178T564 126ZM694 1446H904L631 1155H488L694 1446Z" />
<glyph unicode="&#xf4;" horiz-adv-x="1124" d="M564 -20Q421 -20 314 41T148 222T89 513Q89 675 144 797T305 986T564 1054Q707 1054 812 992T976 808T1034 513Q1034 355 981 235T823 48T564 -20ZM564 126Q657 126 721 173T818 308T851 517Q851 628 822 716T730
857T564 909Q470 909 405 863T307 728T273 517Q273 408 303 319T397 178T564 126ZM702 1155L562 1285L411 1155H247L498 1380H630L876 1155H702Z" />
<glyph unicode="&#xf5;" horiz-adv-x="1124" d="M564 -20Q421 -20 314 41T148 222T89 513Q89 675 144 797T305 986T564 1054Q707 1054 812 992T976 808T1034 513Q1034 355 981 235T823 48T564 -20ZM564 126Q657 126 721 173T818 308T851 517Q851 628 822 716T730
857T564 909Q470 909 405 863T307 728T273 517Q273 408 303 319T397 178T564 126ZM867 1282Q841 1263 800 1244T695 1224Q641 1224 601 1237T524 1263T440 1276Q391 1276 361 1260T300 1219L265 1329Q299 1360 337 1382T432 1404Q481 1404 524 1390T609 1362T695
1348Q740 1348 773 1364T835 1404L867 1282Z" />
<glyph unicode="&#xf6;" horiz-adv-x="1124" d="M564 -20Q421 -20 314 41T148 222T89 513Q89 675 144 797T305 986T564 1054Q707 1054 812 992T976 808T1034 513Q1034 355 981 235T823 48T564 -20ZM564 126Q657 126 721 173T818 308T851 517Q851 628 822 716T730
857T564 909Q470 909 405 863T307 728T273 517Q273 408 303 319T397 178T564 126ZM666 1216L667 1395H848L847 1216H666ZM277 1216L278 1395H459L458 1216H277Z" />
<glyph unicode="&#xf7;" horiz-adv-x="1109" d="M672 487V264H440V487H672ZM986 799V656L123 654V798L986 799ZM672 1191V968H440V1191H672Z" />
<glyph unicode="&#xf8;" horiz-adv-x="1172" d="M1124 963L116 -11L40 68L1050 1042L1124 963ZM583 -20Q440 -20 334 41T168 222T109 513Q109 675 164 797T325 986T584 1054Q727 1054 832 992T995 808T1054 513Q1054 355 1001 235T843 48T583 -20ZM584 126Q677
126 741 173T838 308T871 517Q871 628 842 716T749 857T584 909Q490 909 425 863T327 728T293 517Q293 408 322 319T416 178T584 126Z" />
<glyph unicode="&#xf9;" horiz-adv-x="1145" d="M533 -20Q452 -19 381 3T254 70T168 179T136 332V1034H321V351Q321 250 383 187T572 124Q686 124 755 183T825 361V1034H1009V0H862L843 198Q824 120 779 72T670 2T533 -20ZM440 1446H230L503 1155H646L440 1446Z" />
<glyph unicode="&#xfa;" horiz-adv-x="1145" d="M533 -20Q452 -19 381 3T254 70T168 179T136 332V1034H321V351Q321 250 383 187T572 124Q686 124 755 183T825 361V1034H1009V0H862L843 198Q824 120 779 72T670 2T533 -20ZM707 1446H917L644 1155H501L707 1446Z" />
<glyph unicode="&#xfb;" horiz-adv-x="1145" d="M533 -20Q452 -19 381 3T254 70T168 179T136 332V1034H321V351Q321 250 383 187T572 124Q686 124 755 183T825 361V1034H1009V0H862L843 198Q824 120 779 72T670 2T533 -20ZM715 1155L575 1285L424 1155H260L511
1380H643L889 1155H715Z" />
<glyph unicode="&#xfc;" horiz-adv-x="1145" d="M533 -20Q452 -19 381 3T254 70T168 179T136 332V1034H321V351Q321 250 383 187T572 124Q686 124 755 183T825 361V1034H1009V0H862L843 198Q824 120 779 72T670 2T533 -20ZM679 1216L680 1395H861L860 1216H679ZM290
1216L291 1395H472L471 1216H290Z" />
<glyph unicode="&#xfd;" horiz-adv-x="1067" d="M255 -330Q164 -330 130 -317T96 -304V-184L201 -186Q259 -188 297 -178T358 -151T393 -113T414 -73L450 25L46 1034H233L538 236L841 1034H1022L586 -78Q546 -176 497 -231T387 -308T255 -330ZM669 1446H879L606
1155H463L669 1446Z" />
<glyph unicode="&#xfe;" horiz-adv-x="1176" d="M335 1446V892Q360 919 400 957T504 1025T662 1054Q782 1054 878 997T1030 823T1086 531Q1086 354 1030 231T874 44T643 -20Q554 -20 486 8T368 79Q350 95 344 93T337 66V-322H153V1446H335ZM337 234Q392 178 453
144T588 110Q680 110 749 156T857 296T897 529Q897 670 857 756T748 883T598 923Q521 923 463 890T371 808T337 709V234Z" />
<glyph unicode="&#xff;" horiz-adv-x="1067" d="M255 -330Q164 -330 130 -317T96 -304V-184L201 -186Q259 -188 297 -178T358 -151T393 -113T414 -73L450 25L46 1034H233L538 236L841 1034H1022L586 -78Q546 -176 497 -231T387 -308T255 -330ZM642 1216L643 1395H824L823
1216H642ZM253 1216L254 1395H435L434 1216H253Z" />
<glyph unicode="&#x2013;" horiz-adv-x="1110" d="M987 575V430L124 428V574L987 575Z" />
<glyph unicode="&#x2014;" horiz-adv-x="2234" d="M1863 575V430L371 428V574L1863 575Z" />
<glyph unicode="&#x2018;" horiz-adv-x="479" d="M362 1509L251 1261L337 1256V1037H106V1229L276 1509H362Z" />
<glyph unicode="&#x2019;" horiz-adv-x="463" d="M100 974L211 1222L125 1227V1446H356V1254L186 974H100Z" />
<glyph unicode="&#x201a;" horiz-adv-x="483" d="M87 -249L198 -3L112 2V223H343V31L173 -249H87Z" />
<glyph unicode="&#x201c;" horiz-adv-x="838" d="M466 974V1167L636 1446H722L610 1199L697 1194V974H466ZM106 974V1167L277 1446H363L251 1199L337 1194V974H106Z" />
<glyph unicode="&#x201d;" horiz-adv-x="821" d="M458 974L570 1222L484 1227V1446H714V1254L544 974H458ZM100 974L211 1222L125 1227V1446H356V1254L186 974H100Z" />
<glyph unicode="&#x201e;" horiz-adv-x="850" d="M455 -249L566 -3L480 2V223H711V31L541 -249H455ZM87 -249L198 -3L112 2V223H343V31L173 -249H87Z" />
<glyph unicode="&#x2022;" horiz-adv-x="633" d="M311 539Q257 539 213 565T143 637T116 736Q116 790 142 834T213 905T311 931Q365 931 409 905T480 835T507 736Q507 682 481 637T410 566T311 539Z" />
<glyph unicode="&#x2039;" horiz-adv-x="556" d="M247 502L446 140H342L81 502L343 880H449L247 502Z" />
<glyph unicode="&#x203a;" horiz-adv-x="555" d="M302 502L100 880H205L467 502L206 140H103L302 502Z" />
</font>
</defs>
</svg>
