<?xml version="1.0" standalone="no"?>
<!DOCTYPE svg PUBLIC "-//W3C//DTD SVG 20010904//EN"
 "http://www.w3.org/TR/2001/REC-SVG-20010904/DTD/svg10.dtd">
<svg version="1.0" xmlns="http://www.w3.org/2000/svg"
 width="500.000000pt" height="500.000000pt" viewBox="0 0 500.000000 500.000000"
 preserveAspectRatio="xMidYMid meet">
<metadata>
Created by potrace 1.11, written by Peter Selinger 2001-2013
</metadata>
<g transform="translate(0.000000,500.000000) scale(0.100000,-0.100000)"
fill="#000000" stroke="none">
<path d="M780 3788 c0 -35 3 -38 28 -39 100 -3 190 -31 220 -68 15 -18 29 -50
39 -89 11 -41 13 -2136 2 -2212 -27 -191 -77 -251 -237 -289 -52 -13 -52 -13
-52 -52 l0 -40 48 5 c58 6 573 7 665 1 l67 -5 0 40 c0 38 -1 39 -37 45 -66 9
-164 34 -199 51 -72 34 -121 113 -139 224 -4 25 -9 531 -11 1124 l-3 1080 30
-62 c16 -34 29 -64 29 -66 0 -3 21 -54 46 -113 25 -59 61 -144 79 -188 19 -44
83 -198 144 -343 61 -145 111 -265 111 -268 0 -2 9 -23 20 -47 10 -23 103
-242 205 -487 273 -653 306 -732 321 -765 7 -16 29 -70 49 -120 21 -49 40 -93
44 -98 11 -11 46 -16 59 -8 6 4 68 155 138 336 356 931 438 1145 459 1200 13
33 94 245 180 470 85 226 159 419 164 430 5 11 13 31 19 45 8 18 10 -293 9
-1105 -2 -1038 -3 -1133 -19 -1167 -35 -77 -94 -108 -233 -123 -32 -4 -62 -8
-65 -10 -4 -2 -6 -19 -5 -37 l2 -33 104 2 c140 2 929 2 1054 0 l100 -2 1 38
c1 33 -1 37 -22 37 -13 0 -26 1 -29 1 -2 1 -36 7 -75 15 -116 22 -156 66 -167
187 -3 34 -6 555 -6 1157 0 1205 -1 1188 57 1246 35 35 78 50 171 60 33 3 62
8 65 11 3 2 5 20 6 39 l1 34 -221 -5 c-122 -3 -327 -5 -457 -5 l-236 0 -47
-127 c-27 -71 -65 -171 -85 -223 -20 -52 -163 -427 -316 -832 -154 -406 -284
-737 -288 -735 -4 1 -28 52 -53 112 -24 61 -51 124 -58 140 -8 17 -24 55 -36
85 -27 69 -157 383 -178 430 -8 19 -37 87 -63 150 -117 287 -244 592 -383 925
-7 17 -17 41 -23 55 l-10 25 -492 0 -491 0 0 -37z"/>
</g>
</svg>
